<?xml version="1.0" encoding="UTF-8" standalone="no"?>
<svg width="210" height="60" viewBox="0 0 210 60" version="1.1" xmlns="http://www.w3.org/2000/svg">
  <rect width="210" height="60" rx="8" fill="#FFDD00"/>
  <g transform="translate(20, 20)">
    <path d="M11.5,0 C12.8807,0 14,1.11929 14,2.5 L14,17.5 C14,18.8807 12.8807,20 11.5,20 L2.5,20 C1.11929,20 0,18.8807 0,17.5 L0,2.5 C0,1.11929 1.11929,0 2.5,0 L11.5,0 Z M11.5,2 L2.5,2 C2.22386,2 2,2.22386 2,2.5 L2,17.5 C2,17.7761 2.22386,18 2.5,18 L11.5,18 C11.7761,18 12,17.7761 12,17.5 L12,2.5 C12,2.22386 11.7761,2 11.5,2 Z" fill="#000000"/>
    <path d="M7,4 C8.65685,4 10,5.34315 10,7 C10,8.65685 8.65685,10 7,10 C5.34315,10 4,8.65685 4,7 C4,5.34315 5.34315,4 7,4 Z M7,12 C9.76142,12 12,14.2386 12,17 L12,18 L2,18 L2,17 C2,14.2386 4.23858,12 7,12 Z" fill="#000000"/>
  </g>
  <text x="50" y="35" font-family="Arial, sans-serif" font-size="16" font-weight="bold" fill="#000000">Buy me a coffee</text>
</svg>
